<?xml version="1.0" encoding="UTF-8"?>
<svg id="Layer_2" data-name="Layer 2" xmlns="http://www.w3.org/2000/svg" viewBox="0 0 56.24 30.35">
  <g id="Layer_1-2" data-name="Layer 1">
    <g>
      <path d="M3.15,23.02c-.72-.19-1.3-.52-1.76-1-.45-.48-.75-1.08-.87-1.8-.11-.61-.08-1.18.09-1.72.17-.54.44-.99.83-1.36s.84-.6,1.36-.69c.48-.09.91-.04,1.28.15.37.18.64.48.8.89-.72.13-1.26.42-1.62.87-.36.45-.48,1.01-.37,1.65.1.59.37,1.04.79,1.33.42.3.93.39,1.52.29.73-.13,1.29-.48,1.68-1.05s2.65-3.38-2.46-5.55C-2.45,12.13-1.15.02,7.17,0c6.31-.02,7.49,6.43,1.97,8.9-.48.22-3.34-.29-3.73-.67,4.16-.42,3.53-2.47,3.15-3.4C6.87.61-.84,7.36,6.84,13.01c.66.49,1.19.93,1.61,1.3.41.37.79.81,1.13,1.32.34.52.57,1.1.68,1.75.16.88.05,1.73-.31,2.53-.36.8-.93,1.49-1.71,2.05-.78.56-1.68.94-2.71,1.12-.87.15-1.66.14-2.38-.05Z"/>
      <path d="M12.53,20.94c-.48-.34-.79-.93-.94-1.75-.06-.34-.17-.81-.07-1.37.31-1.74,1.14-5.75-2.18-6.53-1.42-.33,5.39-.88,5.39-.88l-.25,7.29c-.01.17,0,.35.03.53.11.61.37.87.78.8.39-.07.69-.29.91-.66s.36-.86.43-1.45l.23-6.89,2.98-.53-.25,7.29c0,.36,0,.61.03.76.08.45.35.64.82.56.63-.11,1.15-.62,1.56-1.51.4-.9.67-1.92.81-3.09s.13-2.14,0-2.94c-.02.07-.1.14-.24.2s-.27.1-.38.12c-.23.04-.44-.04-.61-.23-.17-.2-.28-.43-.32-.69-.06-.33,0-.62.18-.86.18-.24.48-.4.91-.48.45-.08.82.03,1.08.33.27.3.45.71.54,1.24.22,1.24.24,2.61.06,4.09-.18,1.49-.62,2.81-1.33,3.96-.71,1.15-1.72,1.84-3.02,2.07-.68.12-1.25.07-1.73-.14-.48-.21-.83-.6-1.06-1.16-.57,1.3-1.44,2.05-2.63,2.26-.66.12-1.23,0-1.71-.34Z"/>
      <path d="M26.31,18.32c-.66-.43-1.09-1.21-1.29-2.34-.17-.95-.17-2.03,0-3.24s.6-2.31,1.3-3.29c.69-.98,1.69-1.59,2.99-1.82,1.52-.27,2.39.26,2.63,1.58.14.77.04,1.52-.29,2.25-.33.73-.82,1.35-1.48,1.87s-1.4.88-2.22,1.09c.05.42.08.7.1.83.12.68.32,1.11.59,1.31.28.2.68.25,1.2.16.74-.13,1.35-.42,1.82-.85s.96-1.07,1.47-1.88l.7-.12c-1.08,2.82-2.75,4.43-5.01,4.83-1.02.18-1.86.05-2.52-.38ZM29.29,12.6c.4-.41.7-.9.89-1.46s.24-1.12.14-1.69-.32-.82-.67-.76c-.5.09-.91.61-1.23,1.56-.32.95-.49,2-.5,3.14.5-.12.96-.38,1.36-.8Z"/>
      <path d="M36.91,9.74c-1.12,1.34-.93,7.57-.93,7.57l-2.98.53.37-10.73,2.98-.53-.04,1.33c.4-.5.76-.89,1.1-1.18,1.43-1.2,4.52-1.59,5.74-.87,1.57.93.73,6.64.73,6.64,0,.36,0,.61.03.76.08.45.36.64.82.56.63-.11,1.15-.62,1.56-1.51.4-.9.67-1.92.81-3.09s.13-2.14,0-2.94c-.02.07-.1.14-.24.2-.15.06-.27.1-.38.12-.23.04-.44-.04-.61-.23-.17-.2-.28-.43-.32-.69-.06-.33,0-.62.18-.86.18-.24.48-.4.91-.48.45-.08.82.03,1.08.33.27.3.45.71.54,1.24.22,1.24.24,2.61.06,4.09-.18,1.49-.62,2.81-1.33,3.96-.71,1.15-1.72,1.84-3.03,2.07-.8.14-1.46.05-1.98-.28-.52-.33-.85-.9-1-1.71-.06-.33-.08-.67-.07-1.01,0,0,.02-3.58.14-5.46.05-.79-2.41.13-4.12,2.17Z"/>
      <path d="M50.56,14.04c-.66-.43-1.09-1.21-1.29-2.34-.17-.95-.17-2.03,0-3.24.17-1.21.6-2.31,1.3-3.29.69-.98,1.69-1.59,2.98-1.82,1.52-.27,2.39.26,2.63,1.58.14.77.04,1.52-.29,2.25s-.82,1.35-1.48,1.87-1.4.88-2.22,1.08c.03.31.05.52.07.63.2,1.14.73,1.64,1.59,1.49.39-.07.78-.25,1.19-.53s.76-.62,1.06-1c-.01,2.11-1.02,3.34-3.04,3.69-1.01.18-1.84.05-2.5-.38ZM53.56,8.34c.4-.41.7-.9.89-1.47.19-.57.24-1.13.14-1.7s-.32-.82-.67-.76c-.48.09-.88.61-1.2,1.57-.32.96-.5,2-.54,3.14.52-.11.98-.37,1.39-.78Z"/>
    </g>
    <path d="M49.41,23.21c-5.84,6.29-18.68,1.4-25.56,1.55-7.23.15-10.04,1.79-13.02,3.17-.53.25-1.51.69-1.51.69,0,0,.9-.82,1.48-1.28,3.03-2.4,8.42-6.11,16.01-5.13,31.34,4.04,18.84-5.62,20.7-4.82,2.4,1.04,4.17,3.38,1.91,5.82Z" stroke="#000" stroke-miterlimit="10"/>
  </g>
</svg>